<?xml version="1.0" encoding="utf-8"?>
<!-- Generator: Adobe Illustrator 26.5.0, SVG Export Plug-In . SVG Version: 6.00 Build 0)  -->
<svg version="1.1" id="Layer_1" xmlns="http://www.w3.org/2000/svg" xmlns:xlink="http://www.w3.org/1999/xlink" x="0px" y="0px"
	 viewBox="0 0 9.3 13.1" style="enable-background:new 0 0 9.3 13.1;" xml:space="preserve">
<style type="text/css">
	.st0{fill:#F28E1C;}
	.st1{fill:#FFFFFF;}
</style>
<g>
	<path class="st0" d="M8.9,3.7c0-0.2-0.1-0.3-0.2-0.4C8.6,3.1,8.3,3,7.5,3.1c-0.3,0-0.7,0.1-1.1,0.1c0-0.5,0.1-1,0.1-1
		C6.2,2.3,5.7,2.4,5.2,2.5C3.6,2.7,2.1,2.6,0.6,2.2c0,0,0.1,0.9,0.1,1.5c0,0.7,0,1.3-0.1,3C0.5,8.1,0.5,8.8,0.4,9.4
		c-0.1,0.9-0.2,2-0.4,3.2c1.7,0.5,3.5,0.6,5.3,0.4c0.7-0.1,1.2-0.2,1.7-0.4C7,12,6.9,11.4,6.9,10.8c0.2-0.3,0.4-0.5,0.6-0.6
		C7.8,10,8.2,9.9,8.8,9.5c0.1-0.1,0.1-0.1,0.2-0.1c0.2-0.7,0.3-1.6,0.3-2.6C9.3,5.5,9.1,4.5,8.9,3.7L8.9,3.7z M8.3,8.5
		C8.2,8.7,8.1,9,7.7,9.3c-0.4,0.3-0.7,0.3-1,0.3C6.6,8.7,6.4,7.8,6.4,6.7c0-0.7,0-1.4,0-2.1c0.1-0.1,0.4-0.5,0.9-0.6
		c0.3,0,0.5,0,0.7,0.1c0.1,0.2,0.3,0.6,0.4,1c0.1,0.2,0.3,1.1,0.2,2.2C8.5,7.7,8.4,8.1,8.3,8.5z"/>
	<path class="st1" d="M0.7,5.5c0,0-0.2,0.3-0.3,0.2c-0.2,0-0.3-0.4-0.3-0.4c-0.2-0.9,0.5-1.8,0.4-1.9C0.4,3.4,0.1,3.7,0,3.7
		c-0.1-0.1,0.1-0.4,0.1-1C0.2,2-0.1,1.8,0,1.2c0-0.2,0.1-0.4,0.3-0.6c0.4-0.2,0.9-0.1,1.2,0.1C1.8,0.9,1.8,0.9,1.9,1
		c0.3,0.1,0.4-0.2,1-0.3c0.3-0.1,0.6-0.2,0.9-0.1c0.3,0.1,0.3,0.1,0.4,0.1C4.6,0.6,4.6,0.2,5,0c0.3-0.1,0.7,0,0.9,0.2
		s0.4,0.5,0.4,0.8c0,0.3-0.2,0.5-0.1,0.6c0.1,0.1,0.2,0,0.3,0.1s0.1,0.3-0.1,0.9c-1.2-0.3-1.6-0.2-1.7,0c-0.1,0.2,0.1,0.5-0.1,1
		C4.7,4,4.5,4.3,4.4,4.3c-0.1,0,0.2-0.7-0.1-1.2C4.2,2.8,3.9,2.6,3.7,2.6c-0.3,0.1-0.4,1-0.4,1.6c0,0.5,0.2,0.8,0,1.3
		C3.2,5.6,3,6,2.9,6C2.7,6,2.5,5.3,2.6,4.7c0.1-0.6,0.3-0.7,0.3-1.4c0-0.2,0-0.5-0.2-0.7C2.4,2.5,2.1,2.6,1.9,2.7
		C1.8,2.9,2,3.2,1.9,3.7c0,0.1-0.1,0.4-0.3,0.4c-0.4,0-0.8-1.4-0.8-1.4L0.7,5.5L0.7,5.5z"/>
</g>
</svg>
